<svg xmlns="http://www.w3.org/2000/svg" viewBox="0 0 331.35 63.43"><defs><style>.cls-1{fill:#61bba5;}</style></defs><title>logo</title><g id="ロゴ_" data-name="ロゴ１"><path class="cls-1" d="M10.68,63.22c-1.44,0-2.22-.05-3-.05-.53,0-1.07,0-1.8.05a.91.91,0,0,1-.91-1,.89.89,0,0,1,.84-1h0c.62,0,1.35,0,2.1,0,.92,0,1.88,0,2.74,0h0a.9.9,0,0,1,.89,1,.92.92,0,0,1-.91,1Z" transform="translate(-2.1 -4.62)"/><path class="cls-1" d="M23.79,66.87a.82.82,0,1,1,0-1.64H30.9a39.77,39.77,0,0,0,2.13-7,.8.8,0,0,1,.84-.68,1,1,0,0,1,1,.91,44.7,44.7,0,0,1-2.28,6.72h5a.81.81,0,0,1,.82.84.77.77,0,0,1-.82.8Zm1.08-9.74a.81.81,0,1,1,0-1.62l4.94,0,0-2.4a.86.86,0,0,1,.94-.84.87.87,0,0,1,.94.84l0,2.4,4.82,0a.81.81,0,1,1,0,1.62Zm3.18,6.56A19.22,19.22,0,0,0,26.52,59a.76.76,0,0,1-.09-.37.89.89,0,0,1,.92-.82.83.83,0,0,1,.8.52,24.82,24.82,0,0,1,1.71,5.1,1,1,0,0,1-1,1A.86.86,0,0,1,28.05,63.68Z" transform="translate(-2.1 -4.62)"/><path class="cls-1" d="M46.42,67.61a1,1,0,0,1-1-.91.72.72,0,0,1,.23-.52c2.72-2.7,2.76-6.1,2.76-9.3,0-1.14,0-2.52-.09-3.47v-.05a.78.78,0,0,1,.87-.73.89.89,0,0,1,1,.78c0,.39,0,.85,0,1.33,0,1.19-.05,2.54-.05,3.54,0,2.58-.34,6.26-3,9A1,1,0,0,1,46.42,67.61ZM53,53.78a.79.79,0,0,1,.87-.76.81.81,0,0,1,.89.76V65.5c0,.48-.44.71-.89.71A.78.78,0,0,1,53,65.5ZM58,53.25a.79.79,0,0,1,.87-.76.82.82,0,0,1,.91.76V66.83c0,.48-.44.71-.89.71s-.89-.23-.89-.71Z" transform="translate(-2.1 -4.62)"/><path class="cls-1" d="M77,58.3a12.61,12.61,0,0,1-3.23,6.48c-1.23,1.14-2.58.51-3.28-.86-1-2,.06-5,2.21-6.45a6.68,6.68,0,0,1,6.91-.37,4.74,4.74,0,0,1,1.49,6.72,6.69,6.69,0,0,1-3.91,2.64c-1.41.37-1.9-1.25-.53-1.57a5,5,0,0,0,3-1.79,3.46,3.46,0,0,0-.88-4.9,4.16,4.16,0,0,0-2-.64A.8.8,0,0,1,77,58.3Zm-3.55.3c-1.49,1.15-2.29,3.28-1.62,4.51.24.46.66.71,1.06.35a9.61,9.61,0,0,0,2.48-5.33,1.13,1.13,0,0,1,.14-.5A5.3,5.3,0,0,0,73.48,58.61Z" transform="translate(-2.1 -4.62)"/><path class="cls-1" d="M99.52,63.65a4,4,0,0,0,1.07,1.28.54.54,0,0,1,.18-.09,18.42,18.42,0,0,0,2-.87.87.87,0,0,1,.36-.09.74.74,0,0,1,.75.66c0,.43-.52.68-1.94,1.12a12,12,0,0,0,2.68.52.73.73,0,1,1-.16,1.46,7.41,7.41,0,0,1-6.35-4H96.71v2c.55-.11,1.08-.23,1.51-.36a.9.9,0,0,1,.21,0,.63.63,0,0,1,.6.64.69.69,0,0,1-.55.66,31.33,31.33,0,0,1-5.16,1,.7.7,0,0,1-.75-.73.73.73,0,0,1,.69-.75c.53-.05,1.21-.11,1.92-.21V63.65H92.91c-.43,2.35-1.49,3.71-2.31,3.71a.87.87,0,0,1-.92-.76A.73.73,0,0,1,90,66c1.33-1.1,1.53-3,1.53-4.34,0-.46,0-.87,0-1.14v0a1.7,1.7,0,0,1,1.81-1.67c1.65,0,3.41,0,5.21,0s3.63,0,5.39,0a.64.64,0,0,1,.69.64.63.63,0,0,1-.68.62h0c-1.32,0-2.65,0-3.95,0-2.1,0-4.14,0-6,0-.55,0-.78.27-.78.67a15.9,15.9,0,0,1-.05,1.67h11a.57.57,0,0,1,.62.59.58.58,0,0,1-.62.59Zm.64-10.52c.53,0,1.08,0,1.6,0a1.58,1.58,0,0,1,1.74,1.42c0,.25,0,.6,0,1,0,1.62,0,2.63-1.8,2.68-1.14,0-2.42.05-3.7.05s-2.84,0-4.05-.05c-1.9-.05-1.9-.89-1.9-2.56s0-2.49,1.87-2.51l1.42,0v-.53a.79.79,0,0,1,1.58,0v.51h1.62v-.51a.79.79,0,0,1,1.58,0Zm-4.71,1.16-1.23,0c-.5,0-.57.27-.59.62,0,.07,0,.16,0,.25h1.83Zm0,1.88H93.62c0,.13,0,.25,0,.36,0,.39.07.55.62.57l1.19,0Zm-.94,5.69a.56.56,0,1,1,0-1.12h7.89a.56.56,0,1,1,0,1.12Zm4.14-7.59H96.89v.91h1.76Zm0,1.9H96.89v.94h1.76Zm3.32-1.3c0-.41-.12-.57-.59-.57l-1.3,0v.89H102Zm0,1.3h-1.88v.94l1.33,0c.43,0,.53-.2.55-.6Z" transform="translate(-2.1 -4.62)"/><path class="cls-1" d="M127.47,63.17,123,63.08h-.53a20.38,20.38,0,0,0,5.74,2.63.72.72,0,0,1,.55.69,1,1,0,0,1-.94,1,19.19,19.19,0,0,1-6.15-3.25l0,3.06v0a.75.75,0,0,1-.84.67c-.43,0-.84-.21-.84-.67v0l0-3a19.47,19.47,0,0,1-6.15,3.31.86.86,0,0,1-.91-.8c0-.28.2-.55.62-.71a17.72,17.72,0,0,0,5.53-2.86h-.59l-4.32.09h0a.62.62,0,0,1-.66-.66.65.65,0,0,1,.68-.68l5.81,0,0-.78-4,0a.6.6,0,1,1,0-1.19l4,0v-.76l-4.91,0a.65.65,0,1,1,0-1.3l3.11,0a4.61,4.61,0,0,0-.36-.73.4.4,0,0,1-.09-.27.54.54,0,0,1,.44-.46l-4.07,0a.72.72,0,0,1-.75-.75.7.7,0,0,1,.73-.73h0l2.33,0a7,7,0,0,0-.92-1.14.57.57,0,0,1-.16-.37c0-.37.46-.71.89-.71a.67.67,0,0,1,.41.11A5.59,5.59,0,0,1,118.14,55l.62,0,0-2.36v0a.72.72,0,0,1,.78-.73.75.75,0,0,1,.8.75v2.36h1V52.7a.74.74,0,0,1,.8-.75.73.73,0,0,1,.78.73v0l0,2.36.6,0a10.38,10.38,0,0,0,.89-1.78.78.78,0,0,1,.75-.53.9.9,0,0,1,.92.8c0,.05,0,.41-.85,1.49l2.42,0h0a.68.68,0,0,1,.71.73.7.7,0,0,1-.73.75l-4.28,0a.69.69,0,0,1,.44.59,3.55,3.55,0,0,1-.32.87l3.09,0a.65.65,0,1,1,0,1.3l-4.87,0v.76l4,0a.6.6,0,1,1,0,1.19l-4,0,0,.78,5.81,0a.63.63,0,0,1,.66.68.61.61,0,0,1-.64.66ZM119,56.45a2,2,0,0,1,.91,1.4l0,.05h2a5.13,5.13,0,0,0,.37-1.16.43.43,0,0,1,.18-.3Z" transform="translate(-2.1 -4.62)"/><path class="cls-1" d="M143.27,55.73a5.66,5.66,0,0,0,.67-.29c.88-.53,1.74.8.56,1.39a9,9,0,0,1-1.76.53A16.27,16.27,0,0,1,142,59a2.33,2.33,0,0,1,2.69,1.39c.66-.34,1.33-.67,2-.94a12.26,12.26,0,0,0,1.25-.59.85.85,0,1,1,.9,1.44c-.51.26-.88.34-1.73.66-.67.26-1.39.58-2,.88a12.86,12.86,0,0,1,0,1.76,1,1,0,0,1-.85,1c-.4,0-.77-.29-.72-.91,0-.34,0-.7,0-1l-.42.24c-2,1.28-1.74,2.24-.85,2.69a5.09,5.09,0,0,0,3.17-.13c1.41-.43,1.86,1.3.38,1.68-.94.24-3.12.48-4.37-.22-2.16-1.22-1.78-3.38,1.12-5.28.22-.14.48-.32.78-.5-.43-1.34-1.66-1.18-2.71,0l-.06.06a3.52,3.52,0,0,1-.37.42c-.88.78-2-.13-1.09-1a8,8,0,0,0,1.3-1.5,13.4,13.4,0,0,0,.75-1.42,3.24,3.24,0,0,1-2-.18c-1.15-.58-.37-2.08.75-1.33a2.45,2.45,0,0,0,1.5,0l.24,0a6.67,6.67,0,0,0,.18-1.34c.06-1,1.57-.86,1.6-.08a3,3,0,0,1-.13.93Z" transform="translate(-2.1 -4.62)"/><path class="cls-1" d="M171.27,60.2l-5.1-.05A18.37,18.37,0,0,0,172,64.77a.84.84,0,0,1,.52.75,1,1,0,0,1-1,1c-.82,0-3.84-2.36-6-5,0,1.87.05,3.84.05,5.53,0,.46-.44.69-.91.69s-.87-.21-.87-.68v0l.07-5.37c-1.88,2.38-5.08,5-6,5a.86.86,0,0,1-.37-1.65,16.93,16.93,0,0,0,5.67-4.87l-4.87.05h0a.71.71,0,0,1-.75-.76.81.81,0,0,1,.76-.87l5.58,0,0-2h-4.18a.71.71,0,0,1-.75-.76.78.78,0,0,1,.75-.84h4.16l0-2.29v0a.76.76,0,0,1,.85-.73c.46,0,.91.25.91.75,0,.82,0,1.56,0,2.29h4.21a.73.73,0,0,1,.71.8.72.72,0,0,1-.71.8h-4.25c0,.62,0,1.28,0,2l5.74,0a.77.77,0,0,1,.73.83.72.72,0,0,1-.71.8Z" transform="translate(-2.1 -4.62)"/><path class="cls-1" d="M194.63,61l-5.19-.07a18.77,18.77,0,0,0,6,4.43.81.81,0,0,1,.52.75,1,1,0,0,1-1,1c-.89,0-4.25-2.54-6.28-4.92,0,1.69.05,3.38.05,5.08,0,.48-.44.71-.89.71s-.85-.23-.85-.69v0l.05-5a20.68,20.68,0,0,1-5.74,4.8,1.17,1.17,0,0,1-.59.18.89.89,0,0,1-.91-.85.88.88,0,0,1,.55-.76,17.52,17.52,0,0,0,5.85-4.69l-5,.07h0a.7.7,0,0,1-.75-.73.75.75,0,0,1,.76-.78l5.85,0,0-3.39h-5a.72.72,0,0,1-.76-.75.75.75,0,0,1,.76-.78h5l0-2a.77.77,0,0,1,.84-.76.8.8,0,0,1,.87.76c0,.68,0,1.33,0,2h4.71a.73.73,0,0,1,.73.76.72.72,0,0,1-.73.76h-4.73c0,1.14,0,2.26,0,3.39h.66a10.39,10.39,0,0,0,1.53-2.75.64.64,0,0,1,.62-.44,1,1,0,0,1,1,.87A7.13,7.13,0,0,1,191,59.49l3.61,0a.73.73,0,0,1,.73.76.7.7,0,0,1-.71.75Zm-10.27-2a6.8,6.8,0,0,0-1.14-1.37.61.61,0,0,1-.27-.5.77.77,0,0,1,.8-.66,3,3,0,0,1,2.08,2,.93.93,0,0,1-.87.91A.7.7,0,0,1,184.36,58.94Z" transform="translate(-2.1 -4.62)"/><path class="cls-1" d="M205.46,66.24c-1.28-3.15,0-7.89.27-9.8a.78.78,0,1,1,1.55.1c-.26,1.3-1.22,5.06-.83,6.55,0,.21.11.16.18,0s.21-.4.27-.51a.64.64,0,0,1,1.12.62,8,8,0,0,0-.94,2.24c-.1.43.1.93-.3,1.28S205.78,67,205.46,66.24Zm4.29-1.14a.79.79,0,0,1,1.14-1.1c.86.78,2.79.53,4,.27s1.38,1.42.32,1.7C213.53,66.4,210.9,66.35,209.75,65.11Zm.91-6.39a.75.75,0,1,1-.22-1.49,9.67,9.67,0,0,1,4.21-.1.78.78,0,1,1-.27,1.54A8.11,8.11,0,0,0,210.66,58.72Z" transform="translate(-2.1 -4.62)"/><path class="cls-1" d="M230.76,66.4c-1.65.27-1.78-1.69-.36-1.88a9.56,9.56,0,0,0,5.23-2.08c1.51-1.33,1.62-2.79.8-3.73-1.14-1.3-3.15-1.26-4.75-.78a17.38,17.38,0,0,0-2.54,1c-.8.39-1.6.8-2.47,1.21a1,1,0,1,1-.87-1.78,42,42,0,0,1,5.56-2.08c2-.52,4.73-.5,6.36,1.21,1.92,2,1.21,4.55-1,6.36A12.35,12.35,0,0,1,230.76,66.4Z" transform="translate(-2.1 -4.62)"/><path class="cls-1" d="M250.1,56.84a.81.81,0,1,1,.52-1.53,4.75,4.75,0,0,0,2.44-.05,11.47,11.47,0,0,0,.36-1.79.85.85,0,0,1,1.69.16,5.92,5.92,0,0,1-.25,1.08,5.68,5.68,0,0,0,.57-.3c.8-.57,1.92.53.78,1.35a6.8,6.8,0,0,1-1.9.82,45.14,45.14,0,0,1-3.18,6c-.66,1.07-2.37.37-1.58-.78a34.67,34.67,0,0,0,2.92-4.85A4.87,4.87,0,0,1,250.1,56.84Zm3.06,10c-1.65-.83-1.85-2.75,0-3.57a5.81,5.81,0,0,1,3.41-.34v-.62c0-.44,0-.89-.05-1.33a5.3,5.3,0,0,1,.09-1.19.82.82,0,0,1,1.6.32,3.59,3.59,0,0,0-.11.84c0,.41,0,.85,0,1.37,0,.34.05.71.07,1.1a6.45,6.45,0,0,1,2.17,1.42c1,1.12-.43,2.38-1.28,1.35a5.17,5.17,0,0,0-1-.92A3.56,3.56,0,0,1,253.16,66.85Zm.57-2.33a.54.54,0,0,0,0,1c1.07.53,2.51,0,2.7-.94,0-.05,0-.12,0-.18A3.56,3.56,0,0,0,253.73,64.52Zm4-6.56c-1,.05-1-1.42.09-1.53a5.62,5.62,0,0,1,3.27.62c1.21.73.28,2.2-.59,1.65A4.57,4.57,0,0,0,257.69,58Z" transform="translate(-2.1 -4.62)"/><path class="cls-1" d="M273.59,65.37c-1.6-3.08-.8-6.45-.6-8.64.09-1,.2-1.58.23-2.35a.86.86,0,0,1,1.72,0,23.37,23.37,0,0,1-.29,2.4,15.27,15.27,0,0,0-.44,4.76c.05.3.14.43.29.05.09-.21.28-.55.37-.76a.71.71,0,1,1,1.32.52,9.24,9.24,0,0,0-.87,3.11c0,.2.09.69-.16,1A.92.92,0,0,1,273.59,65.37Zm9-9c.39-.09.75-.16,1-.25,1.14-.32,1.83,1.24.32,1.56-.46.11-.91.2-1.39.28,0,.52,0,1,.07,1.76.16,3.56-.76,6.15-3.54,8.11-1,.73-2.17-.66-1.07-1.37,2.28-1.48,3-3.66,2.93-6.7,0-.55,0-1-.05-1.51a13.31,13.31,0,0,1-3,.11.83.83,0,1,1,.29-1.62,10.71,10.71,0,0,0,2.68-.07c0-.16,0-.32,0-.48a11,11,0,0,0-.2-2.08c-.14-1.32,1.62-1.24,1.83-.27A8.54,8.54,0,0,1,282.6,56Zm.91-2.08a6.47,6.47,0,0,0-.94-1.48c-.69-.66.32-1.39,1-.82a5.59,5.59,0,0,1,1.25,1.6C285.11,54.53,283.76,55.13,283.47,54.3Zm2.1-.83a5.71,5.71,0,0,0-1-1.44c-.71-.64.28-1.4.94-.85a5.51,5.51,0,0,1,1.28,1.55C287.19,53.62,285.89,54.3,285.57,53.46Z" transform="translate(-2.1 -4.62)"/><path class="cls-1" d="M303.74,64.66c1.3-1.16,1.24-2.84.23-3.52a4.68,4.68,0,0,0-4.64.3,3.9,3.9,0,0,0-1.49,1.33c-.64.94-2.42-.11-1.32-1.19a62.76,62.76,0,0,0,5.37-5.74c.2-.25,0-.18-.12-.11a14.24,14.24,0,0,1-3,.91c-1.4.3-1.67-1.46-.46-1.6a27.59,27.59,0,0,0,3.91-.87c1.42-.41,2.6.85,1.71,1.85-.57.64-1.28,1.33-2,2s-1.42,1.3-2.06,1.92a5.45,5.45,0,0,1,5-.05c2.56,1.53,1.72,4.66-.14,6a5.86,5.86,0,0,1-5.88.45c-1.88-1.23-1-3.43,1-3.5a2.52,2.52,0,0,1,2.81,2.4A2.39,2.39,0,0,0,303.74,64.66ZM300,64.13c-.78.07-.82.8-.25,1.1a3.2,3.2,0,0,0,1.49.27C301.22,64.68,300.74,64.06,300,64.13Z" transform="translate(-2.1 -4.62)"/><path class="cls-1" d="M325.93,63.22c-1.44,0-2.22-.05-3-.05-.53,0-1.07,0-1.79.05a.91.91,0,0,1-.91-1,.89.89,0,0,1,.84-1h0c.62,0,1.35,0,2.1,0,.92,0,1.88,0,2.74,0h0a.9.9,0,0,1,.89,1,.92.92,0,0,1-.91,1Z" transform="translate(-2.1 -4.62)"/></g><g id="ロゴ"><path class="cls-1" d="M4.55,46.93a2.3,2.3,0,1,1,0-4.6h20a111.84,111.84,0,0,0,6-19.55,2.26,2.26,0,0,1,2.35-1.9,2.74,2.74,0,0,1,2.9,2.55c0,2-4.55,14.75-6.4,18.9H43.45a2.27,2.27,0,0,1,2.3,2.35,2.16,2.16,0,0,1-2.3,2.25ZM7.6,19.52A2.28,2.28,0,1,1,7.6,15l13.9.1-.05-6.75A2.42,2.42,0,0,1,24.1,6a2.45,2.45,0,0,1,2.65,2.35l0,6.75L40.25,15a2.28,2.28,0,1,1,0,4.55Zm9,18.45a54,54,0,0,0-4.3-13.05A2.15,2.15,0,0,1,12,23.87a2.5,2.5,0,0,1,2.6-2.3A2.33,2.33,0,0,1,16.85,23c2.25,5,4.8,12.8,4.8,14.35A2.72,2.72,0,0,1,19,40.22,2.41,2.41,0,0,1,16.55,38Z" transform="translate(-2.1 -4.62)"/><path class="cls-1" d="M60.7,49a2.89,2.89,0,0,1-2.9-2.55A2,2,0,0,1,58.45,45c7.65-7.6,7.75-17.15,7.75-26.15,0-3.2-.1-7.1-.25-9.75V9A2.2,2.2,0,0,1,68.4,6.92a2.5,2.5,0,0,1,2.7,2.2c0,1.1.1,2.4.1,3.75,0,3.35-.15,7.15-.15,10,0,7.25-.95,17.6-8.4,25.35A2.66,2.66,0,0,1,60.7,49Zm18.65-38.9A2.21,2.21,0,0,1,81.8,8a2.28,2.28,0,0,1,2.5,2.15v33c0,1.35-1.25,2-2.5,2a2.19,2.19,0,0,1-2.45-2Zm13.9-1.5A2.23,2.23,0,0,1,95.7,6.47a2.3,2.3,0,0,1,2.55,2.15v38.2c0,1.35-1.25,2-2.5,2s-2.5-.65-2.5-2Z" transform="translate(-2.1 -4.62)"/><path class="cls-1" d="M139,16.67l-18.75.1a2.33,2.33,0,1,1,0-4.65l16.25.1,0-4.8a2.45,2.45,0,0,1,2.65-2.35,2.42,2.42,0,0,1,2.65,2.35l0,4.8,16.2-.1a2.24,2.24,0,0,1,2.35,2.3,2.25,2.25,0,0,1-2.35,2.35Zm-2.4,9.15c-2.85,0-5.5,0-7.05,0-1.35,0-2,.65-2,2.2-.05,1.85-.05,4.55-.05,7.35s0,5.75.05,8.15v0a2.2,2.2,0,0,1-2.45,2.1,2.32,2.32,0,0,1-2.55-2.15v-3c0-4.45,0-9.6.1-13.4,0-3.6,2.15-5.4,5.9-5.5,1.9,0,4.85-.1,8.05-.1V19.72a2.48,2.48,0,0,1,5,0v1.85c3.3,0,6.45.05,8.6.1,3.35.1,5.7,1.85,5.75,5.3,0,1.6,0,3.35,0,4.8V35c0,.85.05,1.9.1,3.75v.15c0,3.45-2.65,6.2-7.3,6.2-2.55,0-5.25-.4-5.25-2.75a2.21,2.21,0,0,1,2.05-2.4,1.88,1.88,0,0,1,.5,0,10.85,10.85,0,0,0,2.55.4c1.35,0,2.45-.5,2.45-2.1,0,0-.05-7.25-.1-10.5a1.74,1.74,0,0,0-1.85-1.9c-1.7,0-4.5-.1-7.5-.1V47.13a2.53,2.53,0,0,1-5.05,0Z" transform="translate(-2.1 -4.62)"/><path class="cls-1" d="M201.55,37.88a11.11,11.11,0,0,0,3,3.6,1.56,1.56,0,0,1,.5-.25,51.4,51.4,0,0,0,5.7-2.45,2.46,2.46,0,0,1,1-.25,2.08,2.08,0,0,1,2.1,1.85c0,1.2-1.45,1.9-5.45,3.15A33.72,33.72,0,0,0,216,45a2.06,2.06,0,1,1-.45,4.1c-3.25,0-13.55-1.9-17.85-11.2h-4v5.65c1.55-.3,3-.65,4.25-1a2.52,2.52,0,0,1,.6-.1,1.77,1.77,0,0,1,1.7,1.8,2,2,0,0,1-1.55,1.85,88.31,88.31,0,0,1-14.5,2.9,2,2,0,0,1-2.1-2,2,2,0,0,1,2-2.1c1.5-.15,3.4-.3,5.4-.6V37.88H183c-1.2,6.6-4.2,10.45-6.5,10.45a2.46,2.46,0,0,1-2.6-2.15,2.06,2.06,0,0,1,.85-1.6c3.75-3.1,4.3-8.45,4.3-12.2,0-1.3-.1-2.45-.1-3.2v-.1a4.79,4.79,0,0,1,5.1-4.7c4.65,0,9.6,0,14.65,0s10.2,0,15.15,0a1.8,1.8,0,0,1,2,1.8,1.78,1.78,0,0,1-1.9,1.75h-.05c-3.7,0-7.45,0-11.1,0-5.9,0-11.65,0-17,.1-1.55,0-2.2.75-2.2,1.9a44.55,44.55,0,0,1-.15,4.7H214.2A1.6,1.6,0,0,1,216,36.23a1.63,1.63,0,0,1-1.75,1.65Zm1.8-29.6c1.5,0,3.05,0,4.5.05,3,0,4.7,1.7,4.9,4,0,.7.1,1.7.1,2.7,0,4.55,0,7.4-5.05,7.55-3.2.1-6.8.15-10.4.15-4,0-8-.05-11.4-.15-5.35-.15-5.35-2.5-5.35-7.2,0-4.3,0-7,5.25-7.05,1.3,0,2.6-.05,4-.05V6.77a2.23,2.23,0,0,1,4.45,0V8.22h4.55V6.77a2.23,2.23,0,0,1,4.45,0ZM190.1,11.52c-1.2,0-2.35,0-3.45,0-1.4,0-1.6.75-1.65,1.75,0,.2-.05.45-.05.7h5.15Zm0,5.3H185c0,.35.05.7.05,1,0,1.1.2,1.55,1.75,1.6,1,0,2.2,0,3.35,0Zm-2.65,16a1.58,1.58,0,1,1,0-3.15h22.2a1.58,1.58,0,1,1,0,3.15ZM199.1,11.47h-4.95V14h4.95Zm0,5.35h-4.95v2.65h4.95Zm9.35-3.65c-.1-1.15-.35-1.6-1.65-1.6s-2.4,0-3.65,0V14h5.3Zm0,3.65h-5.3v2.65c1.25,0,2.55,0,3.75,0s1.5-.55,1.55-1.7Z" transform="translate(-2.1 -4.62)"/><path class="cls-1" d="M235.25,31a2.44,2.44,0,0,1-2,1.25,2.16,2.16,0,0,1-2.1-2.15,2.68,2.68,0,0,1,.5-1.5A39.14,39.14,0,0,0,238.5,12h-3.25a2,2,0,0,1-2.15-2.1,2,2,0,0,1,2.15-2.1h13.1a2.1,2.1,0,1,1,0,4.2H242.7a62,62,0,0,1-2.05,7.85c.75-.05,1.5-.05,2.2-.05s1.45,0,2.15.05a4.19,4.19,0,0,1,4,4.2c.1,2.25.1,4.75.1,7.2s0,4.9-.1,7.05c-.15,4.5-3.5,4.7-6.8,4.7-4.85,0-6.4-.75-6.4-6.2,0-2.25,0-4.65.15-7Zm9.5,1.25c0-2.45,0-5.05-.05-7.1,0-1.4-1.3-1.45-2.3-1.45-1.65,0-2.3.3-2.3,1.5-.05,1.9-.1,4.3-.1,6.7,0,2,0,3.9.1,5.5,0,1.25.7,1.5,2.3,1.5,1.25,0,2.25-.3,2.3-1.55C244.75,35.88,244.75,34.13,244.75,32.27Zm20.55-5.75h-5.25v.4c-.55,10-3.45,17.15-8.8,21.85a3.11,3.11,0,0,1-2,.8,2.54,2.54,0,0,1-2.6-2.3,2.15,2.15,0,0,1,.85-1.65c5.6-4.8,7.75-10.65,8.1-18.9l.05-.2H251.5a2,2,0,0,1-2-2.15,2,2,0,0,1,2-2.1h4.2c0-3.45,0-7.3,0-10H253a2,2,0,0,1-2-2.15A2,2,0,0,1,253,8h20.2a2,2,0,0,1,2.1,2.15,2.06,2.06,0,0,1-2.1,2.15H270v10h5a2,2,0,0,1,2,2.1,2,2,0,0,1-2,2.15h-5v20.8a2.12,2.12,0,0,1-2.35,2,2.1,2.1,0,0,1-2.35-2Zm0-14.2h-4.9c0,2.45-.05,6.3-.15,10h5.05Z" transform="translate(-2.1 -4.62)"/><path class="cls-1" d="M312.85,11.62c-.55-.6-.95-.9-1.3-.9s-.7.3-1.2.9a77.15,77.15,0,0,1-16.05,15,3.74,3.74,0,0,1-2.1.7,2.6,2.6,0,0,1-1.15-5c5.8-3,12-9.1,15.8-14.05a5.58,5.58,0,0,1,4.35-2.4,6.44,6.44,0,0,1,4.7,2.4,59,59,0,0,0,16.2,12.5,2.35,2.35,0,0,1,1.35,2.15,3,3,0,0,1-2.95,3C327.8,25.87,318.4,17.82,312.85,11.62ZM310.3,33.18a82.32,82.32,0,0,1-3.65,9.75c4.6-.35,9.15-.9,13.5-1.55a33.29,33.29,0,0,0-3.65-2.9,2,2,0,0,1-1-1.7,2.27,2.27,0,0,1,2.35-2c2.95,0,12,8.35,12,11.3a2.84,2.84,0,0,1-2.8,2.7,2.26,2.26,0,0,1-2.05-1.35,22.09,22.09,0,0,0-1.65-2.55,204.73,204.73,0,0,1-26.9,3.4,2.37,2.37,0,0,1-2.3-2.5,2.1,2.1,0,0,1,2.05-2.25c1.75-.05,3.55-.1,5.35-.2A58.16,58.16,0,0,0,305,33.23l-9.45,0a2.13,2.13,0,0,1-2.35-2.15,2.28,2.28,0,0,1,2.35-2.35H327.3a2.26,2.26,0,0,1,2.4,2.3,2.21,2.21,0,0,1-2.4,2.2ZM304.6,24a2.2,2.2,0,0,1-2.35-2.25,2.23,2.23,0,0,1,2.35-2.25H319a2.23,2.23,0,0,1,2.35,2.25A2.2,2.2,0,0,1,319,24Z" transform="translate(-2.1 -4.62)"/></g></svg>