<svg xmlns="http://www.w3.org/2000/svg" viewBox="0 0 355.82 56.14"><defs><style>.cls-1,.cls-2{fill:none;stroke:#f29600;stroke-width:3px;}.cls-1{stroke-miterlimit:10;}.cls-3{fill:#f29600;}.cls-4{fill:#0d3387;}.cls-5{fill:#0ca298;}</style></defs><title>logo</title><g id="レイヤー_2" data-name="レイヤー 2"><g id="レイヤー_4" data-name="レイヤー 4"><polygon class="cls-1" points="10.3 3.36 52.94 3.36 56.24 31.93 51.5 31.93 51.93 44.71 57.53 44.57 58.39 54.48 38.58 54.48 37.72 48.45 24.65 44.43 23.5 54.62 1.82 54.33 3.69 45 8.29 45.14 10.01 31.79 5.84 31.79 10.3 3.36"/><polyline class="cls-2" points="23.22 14.85 22.36 23.46 7.14 23.61"/><polyline class="cls-2" points="40.3 14.99 41.02 23.03 54.95 23.03"/><polygon class="cls-3" points="24.08 31.07 39.15 31.07 38.87 37.39 24.08 31.07"/><polygon class="cls-4" points="18.84 12.87 16.43 11.6 14.02 12.88 14.48 10.19 12.53 8.29 15.22 7.9 16.42 5.45 17.63 7.89 20.33 8.28 18.38 10.18 18.84 12.87"/><polygon class="cls-4" points="34.26 12.81 31.85 11.55 29.44 12.82 29.89 10.13 27.94 8.24 30.64 7.84 31.84 5.4 33.05 7.84 35.74 8.22 33.8 10.13 34.26 12.81"/><polygon class="cls-4" points="49.16 12.94 46.75 11.67 44.34 12.95 44.79 10.26 42.84 8.36 45.53 7.97 46.74 5.52 47.95 7.96 50.64 8.35 48.69 10.25 49.16 12.94"/><polygon class="cls-4" points="47.5 51.1 45.09 49.83 42.68 51.1 43.13 48.42 41.18 46.52 43.88 46.13 45.08 43.68 46.29 46.12 48.98 46.51 47.04 48.41 47.5 51.1"/></g><g id="ロゴ_" data-name="ロゴ１"><path class="cls-5" d="M79,54.3c-1.24,0-1.91,0-2.58,0-.46,0-.92,0-1.54,0a.78.78,0,0,1-.78-.85.76.76,0,0,1,.72-.84h0c.53,0,1.16,0,1.8,0,.79,0,1.62,0,2.35,0h0a.77.77,0,0,1,.76.84.79.79,0,0,1-.78.85Z" transform="translate(0 -2.31)"/><path class="cls-5" d="M90.27,57.43a.7.7,0,1,1,0-1.4h6.1a34.16,34.16,0,0,0,1.83-6,.69.69,0,0,1,.72-.58.84.84,0,0,1,.88.78,38.4,38.4,0,0,1-2,5.77h4.29a.69.69,0,0,1,.7.72.66.66,0,0,1-.7.69Zm.93-8.36a.69.69,0,1,1,0-1.39l4.24,0,0-2.06a.74.74,0,0,1,.81-.72.75.75,0,0,1,.81.72l0,2.06,4.14,0a.7.7,0,1,1,0,1.39Zm2.73,5.63a16.48,16.48,0,0,0-1.31-4,.65.65,0,0,1-.08-.32.76.76,0,0,1,.79-.7.71.71,0,0,1,.69.44,21.3,21.3,0,0,1,1.46,4.38.83.83,0,0,1-.82.87A.74.74,0,0,1,93.93,54.7Z" transform="translate(0 -2.31)"/><path class="cls-5" d="M109.69,58.07a.88.88,0,0,1-.88-.78.61.61,0,0,1,.2-.44c2.33-2.32,2.37-5.23,2.37-8,0-1,0-2.17-.08-3v0a.67.67,0,0,1,.75-.63.76.76,0,0,1,.82.67c0,.33,0,.73,0,1.14,0,1,0,2.18,0,3,0,2.21-.29,5.37-2.56,7.74A.81.81,0,0,1,109.69,58.07Zm5.69-11.87a.67.67,0,0,1,.75-.66.7.7,0,0,1,.76.66V56.26c0,.41-.38.61-.76.61a.67.67,0,0,1-.75-.61Zm4.24-.46a.68.68,0,0,1,.75-.66.7.7,0,0,1,.78.66V57.4c0,.41-.38.61-.76.61s-.76-.2-.76-.61Z" transform="translate(0 -2.31)"/><path class="cls-5" d="M136,50.08a10.81,10.81,0,0,1-2.77,5.56c-1.06,1-2.21.44-2.82-.74-.87-1.7.06-4.26,1.9-5.53a5.74,5.74,0,0,1,5.93-.32,4.06,4.06,0,0,1,1.28,5.77,5.74,5.74,0,0,1-3.35,2.27c-1.21.32-1.63-1.07-.45-1.35a4.26,4.26,0,0,0,2.55-1.54,3,3,0,0,0-.76-4.2,3.57,3.57,0,0,0-1.7-.55A.69.69,0,0,1,136,50.08Zm-3,.26c-1.28,1-2,2.82-1.39,3.87.21.4.56.6.91.3a8.25,8.25,0,0,0,2.13-4.57,1,1,0,0,1,.12-.43A4.55,4.55,0,0,0,132.91,50.35Z" transform="translate(0 -2.31)"/><path class="cls-5" d="M155.26,54.67a3.4,3.4,0,0,0,.92,1.1.49.49,0,0,1,.15-.08,15.72,15.72,0,0,0,1.74-.75.77.77,0,0,1,.31-.08.64.64,0,0,1,.64.56c0,.37-.44.58-1.66,1a10.3,10.3,0,0,0,2.3.44.63.63,0,1,1-.14,1.25,6.36,6.36,0,0,1-5.45-3.42h-1.22v1.72c.47-.09.93-.2,1.3-.31a.8.8,0,0,1,.18,0,.54.54,0,0,1,.52.55.6.6,0,0,1-.47.56,27,27,0,0,1-4.43.88.6.6,0,0,1-.64-.63.62.62,0,0,1,.59-.64c.46,0,1-.09,1.65-.18V54.67h-2c-.37,2-1.28,3.19-2,3.19a.75.75,0,0,1-.79-.66.63.63,0,0,1,.26-.49A4.75,4.75,0,0,0,148.38,53c0-.4,0-.75,0-1v0a1.46,1.46,0,0,1,1.56-1.43H159a.55.55,0,0,1,.59.55.54.54,0,0,1-.58.53h0c-1.13,0-2.27,0-3.39,0-1.8,0-3.56,0-5.19,0-.47,0-.67.23-.67.58a13.6,13.6,0,0,1,0,1.43h9.42a.49.49,0,0,1,.53.5.5.5,0,0,1-.53.5Zm.55-9c.46,0,.93,0,1.37,0a1.35,1.35,0,0,1,1.5,1.22c0,.21,0,.52,0,.82,0,1.39,0,2.26-1.54,2.3-1,0-2.08,0-3.17,0s-2.44,0-3.48,0c-1.63,0-1.63-.76-1.63-2.2s0-2.14,1.6-2.15l1.22,0v-.46a.68.68,0,0,1,1.36,0v.44h1.39v-.44a.68.68,0,0,1,1.36,0Zm-4,1h-1.05c-.43,0-.49.23-.5.53,0,.06,0,.14,0,.21h1.57Zm0,1.62h-1.57c0,.11,0,.21,0,.31,0,.33.06.47.53.49h1ZM151,53.13a.48.48,0,1,1,0-1h6.77a.48.48,0,1,1,0,1Zm3.56-6.52H153v.78h1.51Zm0,1.63H153v.81h1.51Zm2.85-1.11c0-.35-.11-.49-.5-.49h-1.11v.76h1.62Zm0,1.11h-1.62v.81h1.14c.37,0,.46-.17.47-.52Z" transform="translate(0 -2.31)"/><path class="cls-5" d="M179.24,54.26l-3.85-.08h-.46a17.52,17.52,0,0,0,4.93,2.26.61.61,0,0,1,.47.59.85.85,0,0,1-.81.84,16.45,16.45,0,0,1-5.28-2.79l0,2.62v0a.64.64,0,0,1-.72.58c-.37,0-.72-.18-.72-.58v0l0-2.61a16.72,16.72,0,0,1-5.28,2.84.74.74,0,0,1-.78-.69c0-.24.17-.47.53-.61a15.25,15.25,0,0,0,4.75-2.46h-.5l-3.71.08h0a.54.54,0,0,1-.56-.56.56.56,0,0,1,.58-.58l5,0,0-.67-3.45,0a.51.51,0,1,1,0-1l3.43,0v-.66h-4.21a.56.56,0,1,1,0-1.11h2.67a4,4,0,0,0-.31-.62.35.35,0,0,1-.08-.23.47.47,0,0,1,.38-.4l-3.49,0a.62.62,0,0,1-.64-.64.6.6,0,0,1,.63-.62h0l2,0a6.05,6.05,0,0,0-.79-1,.49.49,0,0,1-.14-.32c0-.32.4-.61.76-.61a.58.58,0,0,1,.35.09,4.8,4.8,0,0,1,1.24,1.83h.53l0-2v0a.62.62,0,0,1,.67-.62.64.64,0,0,1,.69.64v2H174v-2a.64.64,0,0,1,.69-.64.63.63,0,0,1,.67.63v0l0,2h.52a8.87,8.87,0,0,0,.76-1.53.67.67,0,0,1,.64-.46A.77.77,0,0,1,178,46s0,.35-.73,1.28l2.08,0h0a.59.59,0,0,1,.61.63.6.6,0,0,1-.63.64l-3.68,0a.59.59,0,0,1,.38.5,3.06,3.06,0,0,1-.27.75h2.66a.56.56,0,1,1,0,1.11h-4.18v.66l3.4,0a.51.51,0,1,1,0,1l-3.42,0,0,.67,5,0a.54.54,0,0,1,.56.58.52.52,0,0,1-.55.56Zm-7.29-5.77a1.76,1.76,0,0,1,.78,1.21l0,0h1.68a4.41,4.41,0,0,0,.32-1,.38.38,0,0,1,.15-.26Z" transform="translate(0 -2.31)"/><path class="cls-5" d="M192.79,47.87a5,5,0,0,0,.58-.25c.75-.45,1.5.69.48,1.19a7.67,7.67,0,0,1-1.51.45,14.07,14.07,0,0,1-.66,1.39,2,2,0,0,1,2.31,1.2c.56-.29,1.14-.58,1.68-.81a10.38,10.38,0,0,0,1.07-.51.73.73,0,1,1,.77,1.24c-.44.22-.75.29-1.48.56-.58.22-1.2.49-1.74.76a11,11,0,0,1,0,1.51.81.81,0,0,1-.73.85c-.34,0-.66-.25-.62-.78,0-.29,0-.6,0-.89l-.36.21c-1.7,1.1-1.5,1.92-.73,2.31a4.37,4.37,0,0,0,2.72-.11c1.21-.37,1.59,1.11.33,1.44a6,6,0,0,1-3.75-.19c-1.85-1-1.52-2.9,1-4.53.19-.12.41-.28.67-.43-.37-1.15-1.43-1-2.32,0l-.06.05a3,3,0,0,1-.32.36c-.75.67-1.76-.11-.93-.85a6.92,6.92,0,0,0,1.11-1.29,11.51,11.51,0,0,0,.65-1.22,2.77,2.77,0,0,1-1.7-.15c-1-.5-.32-1.79.65-1.14a2.11,2.11,0,0,0,1.29,0l.21,0a5.74,5.74,0,0,0,.15-1.15c.06-.82,1.35-.74,1.37-.07a2.59,2.59,0,0,1-.11.8Z" transform="translate(0 -2.31)"/><path class="cls-5" d="M216.83,51.71l-4.38,0a15.77,15.77,0,0,0,5,4,.72.72,0,0,1,.44.64.9.9,0,0,1-.88.85c-.7,0-3.3-2-5.11-4.29,0,1.6,0,3.3,0,4.75,0,.4-.38.59-.78.59s-.75-.18-.75-.58h0l.06-4.61c-1.62,2-4.36,4.29-5.14,4.29a.73.73,0,0,1-.32-1.42,14.51,14.51,0,0,0,4.87-4.18l-4.18,0h0a.61.61,0,0,1-.64-.66.69.69,0,0,1,.66-.75l4.79,0,0-1.71h-3.58a.61.61,0,0,1-.64-.66.67.67,0,0,1,.64-.72h3.57l0-2v0a.65.65,0,0,1,.73-.62c.4,0,.78.21.78.64,0,.7,0,1.34,0,2h3.62a.63.63,0,0,1,.61.69.62.62,0,0,1-.61.69h-3.65c0,.53,0,1.1,0,1.71l4.93,0a.66.66,0,0,1,.63.72.62.62,0,0,1-.61.69Z" transform="translate(0 -2.31)"/><path class="cls-5" d="M236.87,52.38l-4.46-.06a16.14,16.14,0,0,0,5.16,3.8.69.69,0,0,1,.44.64.89.89,0,0,1-.88.82c-.76,0-3.65-2.18-5.39-4.23,0,1.45,0,2.9,0,4.36,0,.41-.38.61-.76.61s-.73-.2-.73-.59v0l0-4.26a17.74,17.74,0,0,1-4.93,4.12,1,1,0,0,1-.5.15.76.76,0,0,1-.78-.73.75.75,0,0,1,.47-.66,15,15,0,0,0,5-4l-4.29.06h0a.6.6,0,0,1-.64-.62.64.64,0,0,1,.66-.67l5,0,0-2.92H226a.62.62,0,0,1-.66-.64.64.64,0,0,1,.66-.67h4.3l0-1.72a.66.66,0,0,1,.72-.66.68.68,0,0,1,.75.66c0,.58,0,1.14,0,1.72h4a.62.62,0,0,1,.63.66.62.62,0,0,1-.63.66h-4.06c0,1,0,1.94,0,2.92h.56a8.91,8.91,0,0,0,1.31-2.37.55.55,0,0,1,.53-.38.87.87,0,0,1,.85.75,6.13,6.13,0,0,1-1.22,2l3.1,0a.62.62,0,0,1,.63.66.6.6,0,0,1-.61.64Zm-8.82-1.75a5.82,5.82,0,0,0-1-1.17.53.53,0,0,1-.23-.43.66.66,0,0,1,.69-.56,2.55,2.55,0,0,1,1.79,1.71.8.8,0,0,1-.75.78A.6.6,0,0,1,228.05,50.63Z" transform="translate(0 -2.31)"/><path class="cls-5" d="M246.16,56.9c-1.1-2.71,0-6.77.23-8.4a.67.67,0,1,1,1.33.08c-.22,1.11-1,4.34-.71,5.62,0,.18.1.14.15,0s.18-.34.23-.44a.55.55,0,0,1,1,.54,6.91,6.91,0,0,0-.81,1.92c-.08.37.08.8-.26,1.1S246.43,57.57,246.16,56.9Zm3.68-1a.68.68,0,0,1,1-.95c.74.67,2.39.45,3.46.23s1.18,1.22.27,1.46C253.08,57,250.83,57,249.84,55.92Zm.78-5.48a.65.65,0,1,1-.19-1.28,8.28,8.28,0,0,1,3.61-.08.67.67,0,1,1-.23,1.32A7,7,0,0,0,250.62,50.44Z" transform="translate(0 -2.31)"/><path class="cls-5" d="M267.87,57c-1.42.23-1.53-1.45-.31-1.62A8.21,8.21,0,0,0,272,53.63c1.3-1.14,1.39-2.4.69-3.21-1-1.11-2.7-1.08-4.07-.67a14.82,14.82,0,0,0-2.18.9c-.69.34-1.37.69-2.12,1a.86.86,0,1,1-.75-1.53,35.92,35.92,0,0,1,4.78-1.79c1.74-.44,4.06-.43,5.46,1,1.65,1.72,1,3.91-.84,5.46A10.6,10.6,0,0,1,267.87,57Z" transform="translate(0 -2.31)"/><path class="cls-5" d="M284.46,48.83a.7.7,0,1,1,.44-1.31,4.08,4.08,0,0,0,2.09,0,9.87,9.87,0,0,0,.31-1.54.73.73,0,0,1,1.45.14,5.12,5.12,0,0,1-.21.93,4.62,4.62,0,0,0,.49-.26c.69-.49,1.65.46.67,1.16a5.82,5.82,0,0,1-1.63.7,38.61,38.61,0,0,1-2.73,5.14c-.56.92-2,.32-1.36-.67a29.74,29.74,0,0,0,2.5-4.17A4.18,4.18,0,0,1,284.46,48.83Zm2.63,8.59c-1.42-.72-1.59-2.37,0-3.07a5,5,0,0,1,2.93-.29v-.53c0-.38,0-.76,0-1.14a4.62,4.62,0,0,1,.08-1,.7.7,0,0,1,1.37.28,3,3,0,0,0-.09.72c0,.35,0,.73,0,1.17,0,.29,0,.61.06.95a5.53,5.53,0,0,1,1.86,1.22c.87,1-.37,2-1.1,1.16a4.39,4.39,0,0,0-.87-.79A3.06,3.06,0,0,1,287.09,57.42Zm.49-2a.46.46,0,0,0,0,.88,1.65,1.65,0,0,0,2.32-.81s0-.11,0-.15A3.06,3.06,0,0,0,287.58,55.42Zm3.4-5.63c-.84,0-.9-1.22.08-1.31a4.83,4.83,0,0,1,2.81.53c1,.63.24,1.89-.5,1.42A3.93,3.93,0,0,0,291,49.79Z" transform="translate(0 -2.31)"/><path class="cls-5" d="M304.62,56.15c-1.37-2.64-.69-5.54-.52-7.42.08-.87.17-1.36.2-2a.74.74,0,0,1,1.48,0,20.31,20.31,0,0,1-.24,2.06,13.1,13.1,0,0,0-.38,4.09c0,.26.12.37.24,0s.24-.47.32-.66a.61.61,0,1,1,1.13.44,7.94,7.94,0,0,0-.75,2.67c0,.17.08.59-.14.87A.79.79,0,0,1,304.62,56.15Zm7.71-7.72c.34-.08.64-.14.9-.21,1-.28,1.57,1.07.27,1.34l-1.19.24c0,.44,0,.9.06,1.51.14,3.05-.66,5.28-3,7-.89.63-1.86-.57-.92-1.17,2-1.27,2.58-3.14,2.52-5.75,0-.47,0-.88,0-1.3a11.38,11.38,0,0,1-2.58.09.71.71,0,1,1,.24-1.39,9.21,9.21,0,0,0,2.3-.06c0-.14,0-.27,0-.41a9.62,9.62,0,0,0-.17-1.79c-.12-1.13,1.39-1.07,1.57-.23a7.31,7.31,0,0,1,.08,1.82Zm.78-1.79a5.58,5.58,0,0,0-.81-1.27c-.6-.57.27-1.19.82-.7A4.8,4.8,0,0,1,314.18,46C314.5,46.84,313.34,47.36,313.1,46.64Zm1.8-.72a4.92,4.92,0,0,0-.87-1.24c-.61-.55.24-1.21.81-.73a4.74,4.74,0,0,1,1.1,1.33C316.29,46.06,315.18,46.64,314.9,45.93Z" transform="translate(0 -2.31)"/><path class="cls-5" d="M330.49,55.54c1.11-1,1.07-2.44.2-3a4,4,0,0,0-4,.26,3.35,3.35,0,0,0-1.28,1.14c-.55.81-2.07-.09-1.13-1A54,54,0,0,0,328.9,48c.17-.21,0-.15-.11-.09a12.26,12.26,0,0,1-2.56.78c-1.21.26-1.43-1.25-.4-1.37a23.56,23.56,0,0,0,3.36-.75c1.22-.35,2.23.73,1.46,1.59-.49.55-1.1,1.14-1.71,1.71s-1.22,1.11-1.77,1.65a4.67,4.67,0,0,1,4.29,0c2.2,1.31,1.48,4-.12,5.16a5,5,0,0,1-5.05.38c-1.62-1.05-.9-2.94.9-3A2.17,2.17,0,0,1,329.61,56,2.06,2.06,0,0,0,330.49,55.54Zm-3.25-.46c-.67.06-.7.69-.21.95a2.75,2.75,0,0,0,1.28.23C328.32,55.55,327.91,55,327.24,55.08Z" transform="translate(0 -2.31)"/><path class="cls-5" d="M349.53,54.3c-1.24,0-1.91,0-2.58,0-.46,0-.92,0-1.54,0a.78.78,0,0,1-.78-.85.76.76,0,0,1,.72-.84h0c.53,0,1.16,0,1.8,0,.79,0,1.62,0,2.35,0h0a.77.77,0,0,1,.76.84.79.79,0,0,1-.78.85Z" transform="translate(0 -2.31)"/></g><g id="ロゴ"><path class="cls-5" d="M70.1,39.92a2,2,0,1,1,0-4.09H87.88a99.45,99.45,0,0,0,5.33-17.38,2,2,0,0,1,2.09-1.69A2.43,2.43,0,0,1,97.88,19c0,1.73-4,13.11-5.69,16.8h12.49a2,2,0,0,1,2,2.09,1.92,1.92,0,0,1-2,2Zm2.71-24.36a2,2,0,0,1-2-2,1.94,1.94,0,0,1,2-2l12.36.09,0-6a2.15,2.15,0,0,1,2.36-2.09A2.17,2.17,0,0,1,89.83,5.6l0,6,12-.09a2,2,0,1,1,0,4Zm8,16.4a48,48,0,0,0-3.82-11.6,1.91,1.91,0,0,1-.22-.93,2.22,2.22,0,0,1,2.31-2,2.07,2.07,0,0,1,2,1.29C83,23.07,85.3,30,85.3,31.43A2.42,2.42,0,0,1,82.9,34,2.14,2.14,0,0,1,80.77,32Z" transform="translate(0 -2.31)"/><path class="cls-5" d="M118.68,41.78a2.57,2.57,0,0,1-2.58-2.27,1.8,1.8,0,0,1,.58-1.29c6.8-6.76,6.89-15.25,6.89-23.25,0-2.84-.09-6.31-.22-8.67V6.18a2,2,0,0,1,2.18-1.82,2.22,2.22,0,0,1,2.4,2c0,1,.09,2.13.09,3.33,0,3-.13,6.36-.13,8.85,0,6.44-.84,15.65-7.47,22.54A2.37,2.37,0,0,1,118.68,41.78ZM135.26,7.2a2,2,0,0,1,2.18-1.91,2,2,0,0,1,2.22,1.91V36.49c0,1.2-1.11,1.78-2.22,1.78a1.94,1.94,0,0,1-2.18-1.78Zm12.36-1.33A2,2,0,0,1,149.8,4a2,2,0,0,1,2.27,1.91v34c0,1.2-1.11,1.78-2.22,1.78s-2.22-.58-2.22-1.78Z" transform="translate(0 -2.31)"/><path class="cls-5" d="M186.91,13l-16.67.09a2,2,0,0,1-2.13-2A2,2,0,0,1,170.24,9l14.45.09,0-4.27A2.18,2.18,0,0,1,187,2.71a2.15,2.15,0,0,1,2.36,2.09l0,4.27L203.71,9a2,2,0,0,1,2.09,2,2,2,0,0,1-2.09,2.09Zm-2.13,8.13c-2.53,0-4.89,0-6.27,0-1.2,0-1.73.58-1.78,2,0,1.64,0,4,0,6.53s0,5.11,0,7.25v0a2,2,0,0,1-2.18,1.87,2.07,2.07,0,0,1-2.27-1.91V34.27c0-4,0-8.53.09-11.91,0-3.2,1.91-4.8,5.25-4.89,1.69,0,4.31-.09,7.16-.09V15.74a2.2,2.2,0,0,1,4.4,0v1.64c2.93,0,5.73,0,7.64.09,3,.09,5.07,1.64,5.11,4.71,0,1.42,0,3,0,4.27v2.84c0,.76,0,1.69.09,3.33v.13c0,3.07-2.36,5.51-6.49,5.51-2.27,0-4.67-.36-4.67-2.44a2,2,0,0,1,1.82-2.13,1.65,1.65,0,0,1,.44,0,9.65,9.65,0,0,0,2.27.36c1.2,0,2.18-.44,2.18-1.87,0,0,0-6.44-.09-9.33a1.55,1.55,0,0,0-1.65-1.69c-1.51,0-4-.09-6.67-.09v19a2.25,2.25,0,0,1-4.49,0Z" transform="translate(0 -2.31)"/><path class="cls-5" d="M241.23,31.87a9.88,9.88,0,0,0,2.67,3.2,1.4,1.4,0,0,1,.44-.22,45.55,45.55,0,0,0,5.07-2.18,2.18,2.18,0,0,1,.89-.22,1.85,1.85,0,0,1,1.87,1.65c0,1.07-1.29,1.69-4.84,2.8A30,30,0,0,0,254,38.18a1.83,1.83,0,1,1-.4,3.64c-2.89,0-12-1.69-15.87-10h-3.56v5c1.38-.27,2.71-.58,3.78-.89a2.21,2.21,0,0,1,.53-.09,1.57,1.57,0,0,1,1.51,1.6,1.73,1.73,0,0,1-1.38,1.65,78.55,78.55,0,0,1-12.89,2.58,1.76,1.76,0,0,1-1.87-1.82A1.81,1.81,0,0,1,225.63,38c1.33-.13,3-.27,4.8-.53V31.87h-5.73c-1.07,5.87-3.73,9.29-5.78,9.29a2.19,2.19,0,0,1-2.31-1.91,1.84,1.84,0,0,1,.76-1.42c3.33-2.76,3.82-7.51,3.82-10.85,0-1.16-.09-2.18-.09-2.84V24a4.26,4.26,0,0,1,4.53-4.18c4.13,0,8.53,0,13,0s9.07,0,13.47,0a1.6,1.6,0,0,1,1.73,1.6A1.58,1.58,0,0,1,252.16,23h0c-3.29,0-6.62,0-9.87,0-5.25,0-10.36,0-15.11.09-1.38,0-2,.67-2,1.69a39.58,39.58,0,0,1-.13,4.18h27.42A1.42,1.42,0,0,1,254,30.4a1.45,1.45,0,0,1-1.56,1.47Zm1.6-26.31c1.33,0,2.71,0,4,0,2.67,0,4.18,1.51,4.36,3.56,0,.62.09,1.51.09,2.4,0,4,0,6.58-4.49,6.71-2.84.09-6,.13-9.25.13-3.56,0-7.11,0-10.13-.13-4.76-.13-4.76-2.22-4.76-6.4,0-3.82,0-6.22,4.67-6.27,1.16,0,2.31,0,3.56,0V4.22a2,2,0,0,1,4,0V5.51h4V4.22a2,2,0,0,1,4,0ZM231.05,8.45c-1.07,0-2.09,0-3.07,0-1.24,0-1.42.67-1.47,1.56,0,.18,0,.4,0,.62h4.58Zm0,4.71h-4.58c0,.31,0,.62,0,.89,0,1,.18,1.38,1.56,1.42.93,0,2,0,3,0Zm-2.36,14.22a1.4,1.4,0,1,1,0-2.8h19.74a1.4,1.4,0,1,1,0,2.8Zm10.36-19h-4.4v2.27h4.4Zm0,4.76h-4.4v2.36h4.4Zm8.31-3.25c-.09-1-.31-1.42-1.47-1.42s-2.13,0-3.25,0v2.22h4.71Zm0,3.25h-4.71v2.36c1.11,0,2.27,0,3.33,0s1.33-.49,1.38-1.51Z" transform="translate(0 -2.31)"/><path class="cls-5" d="M269.85,25.78a2.17,2.17,0,0,1-1.78,1.11A1.92,1.92,0,0,1,266.21,25a2.39,2.39,0,0,1,.44-1.33,34.78,34.78,0,0,0,6.09-14.76h-2.89A1.81,1.81,0,0,1,267.94,7a1.81,1.81,0,0,1,1.91-1.87H281.5a1.87,1.87,0,1,1,0,3.73h-5a55.11,55.11,0,0,1-1.82,7c.67,0,1.33,0,2,0s1.29,0,1.91,0a3.73,3.73,0,0,1,3.6,3.73c.09,2,.09,4.22.09,6.4s0,4.36-.09,6.27c-.13,4-3.11,4.18-6,4.18-4.31,0-5.69-.67-5.69-5.51,0-2,0-4.13.13-6.22Zm8.45,1.11c0-2.18,0-4.49,0-6.31,0-1.24-1.16-1.29-2-1.29-1.47,0-2,.27-2,1.33,0,1.69-.09,3.82-.09,6,0,1.73,0,3.47.09,4.89,0,1.11.62,1.33,2,1.33,1.11,0,2-.27,2-1.38C278.3,30.09,278.3,28.54,278.3,26.89Zm18.27-5.11H291.9v.36c-.49,8.89-3.07,15.25-7.82,19.42a2.76,2.76,0,0,1-1.78.71,2.26,2.26,0,0,1-2.31-2,1.91,1.91,0,0,1,.76-1.47c5-4.27,6.89-9.47,7.2-16.8l0-.18H284.3a1.76,1.76,0,0,1-1.78-1.91A1.75,1.75,0,0,1,284.3,18H288c0-3.07,0-6.49,0-8.85h-2.4a1.82,1.82,0,0,1-1.82-1.91,1.79,1.79,0,0,1,1.82-1.91h18a1.8,1.8,0,0,1,1.87,1.91,1.83,1.83,0,0,1-1.87,1.91h-2.8V18h4.44A1.76,1.76,0,0,1,307,19.87a1.77,1.77,0,0,1-1.82,1.91h-4.44V40.27A1.89,1.89,0,0,1,298.66,42a1.86,1.86,0,0,1-2.09-1.78Zm0-12.62h-4.36c0,2.18,0,5.6-.13,8.85h4.49Z" transform="translate(0 -2.31)"/><path class="cls-5" d="M337.51,8.53c-.49-.53-.84-.8-1.16-.8s-.62.27-1.07.8A68.55,68.55,0,0,1,321,21.87a3.33,3.33,0,0,1-1.87.62,2.31,2.31,0,0,1-1-4.44c5.16-2.67,10.67-8.09,14-12.49A5,5,0,0,1,336,3.42a5.73,5.73,0,0,1,4.18,2.13,52.44,52.44,0,0,0,14.4,11.11,2.09,2.09,0,0,1,1.2,1.91,2.69,2.69,0,0,1-2.62,2.62C350.8,21.2,342.44,14,337.51,8.53Zm-2.27,19.16A73.1,73.1,0,0,1,332,36.36c4.09-.31,8.13-.8,12-1.38a29.48,29.48,0,0,0-3.25-2.58,1.81,1.81,0,0,1-.93-1.51,2,2,0,0,1,2.09-1.82c2.62,0,10.62,7.42,10.62,10a2.53,2.53,0,0,1-2.49,2.4,2,2,0,0,1-1.82-1.2A19.79,19.79,0,0,0,346.75,38a182.07,182.07,0,0,1-23.91,3,2.1,2.1,0,0,1-2-2.22,1.86,1.86,0,0,1,1.82-2c1.56,0,3.16-.09,4.76-.18a51.73,51.73,0,0,0,3.16-8.93l-8.4,0A1.89,1.89,0,0,1,320,25.87a2,2,0,0,1,2.09-2.09h28.23a2,2,0,0,1,2.13,2,2,2,0,0,1-2.13,2Zm-5.07-8.18a2,2,0,0,1-2.09-2,2,2,0,0,1,2.09-2h12.76a2,2,0,0,1,2.09,2,2,2,0,0,1-2.09,2Z" transform="translate(0 -2.31)"/></g></g></svg>