<svg id="レイヤー_1" data-name="レイヤー 1" xmlns="http://www.w3.org/2000/svg" viewBox="0 0 366 74"><defs><style>.cls-1{fill:#fff;stroke:#fff;stroke-miterlimit:10;}</style></defs><title>logo</title><path class="cls-1" d="M2.08,41.37A1.24,1.24,0,0,1,2,39.62,68.84,68.84,0,0,0,9.31,29.54H4.11a1.22,1.22,0,0,1,0-2.44H9.58v-7a1.22,1.22,0,0,1,2.44,0v7h5.11a1.22,1.22,0,0,1,0,2.44H12V52.27a1.22,1.22,0,0,1-2.44,0V33.68a69.72,69.72,0,0,1-5.8,7.59A1.18,1.18,0,0,1,2.08,41.37Zm13.57-3S14.5,36.12,13,33.73a1.2,1.2,0,0,1,.37-1.66,1.25,1.25,0,0,1,1.7.37c1.56,2.48,2.67,4.69,2.71,4.78a1.22,1.22,0,0,1-.51,1.66A1.24,1.24,0,0,1,15.65,38.33Zm2.16,9.16c2.71-5.15,4.55-14.22,4.55-22.54a1.2,1.2,0,1,1,2.39,0c0,8.69-1.93,18.22-4.78,23.65a1.28,1.28,0,0,1-1.66.55A1.22,1.22,0,0,1,17.82,47.49Zm24.66,8.05a1.18,1.18,0,0,1,0,1.7,1.22,1.22,0,0,1-1.7.09A84.42,84.42,0,0,1,30.61,45.64a29.48,29.48,0,0,1-8.05,6.81,1.21,1.21,0,0,1-1.61-.55,1.23,1.23,0,0,1-.14-.55,1.2,1.2,0,0,1,.69-1.1,28,28,0,0,0,7.68-6.72,47.86,47.86,0,0,1-3.82-6.9,1.21,1.21,0,0,1,2.21-1,39.78,39.78,0,0,0,3.17,5.84,41.32,41.32,0,0,0,5.34-10.21H26.65a1.22,1.22,0,1,1,0-2.44H37.78a1.22,1.22,0,0,1,1,.51,1.18,1.18,0,0,1,.14,1.1,45.51,45.51,0,0,1-6.72,13.25A82.57,82.57,0,0,0,42.48,55.54ZM22.78,22.92a1.2,1.2,0,1,1,0-2.39H38.15a1.21,1.21,0,0,1,2.39.28v.92a1.19,1.19,0,0,1-1.2,1.2Z"/><path class="cls-1" d="M43,39.76s3.27-4.37,6.67-10.17H44.26A1.24,1.24,0,0,1,43,28.35a1.2,1.2,0,0,1,1.24-1.2h5.43v-7a1.22,1.22,0,1,1,2.44,0v7h5.11a1.2,1.2,0,0,1,1.24,1.2,1.24,1.24,0,0,1-1.24,1.24H52.13V52.32a1.22,1.22,0,0,1-2.44,0V34.19c-2.62,4.14-4.69,6.9-4.78,7A1.21,1.21,0,0,1,43,39.76Zm14.54-2.35A1.17,1.17,0,0,1,56.82,39a1.25,1.25,0,0,1-1.56-.69,33.53,33.53,0,0,0-2.16-4.55,1.25,1.25,0,0,1,.46-1.66,1.21,1.21,0,0,1,1.66.46A29.4,29.4,0,0,1,57.51,37.41Zm2.67-5.06a1.16,1.16,0,0,1,.37-1.66,57.34,57.34,0,0,0,5.52-4.55H62a1.2,1.2,0,0,1-1.24-1.2A1.24,1.24,0,0,1,62,23.7h6.35a7.88,7.88,0,0,0,1-1.2,1.2,1.2,0,0,1,2.07,1.2h7a1.2,1.2,0,0,1,1.2,1.24,1.16,1.16,0,0,1-1.2,1.2H69.48a46.1,46.1,0,0,1-7.59,6.58A1.22,1.22,0,0,1,60.18,32.35Zm1.38,6.72A1.33,1.33,0,0,1,62.9,40.4V52.82a1.33,1.33,0,0,1-2.67,0V40.4A1.33,1.33,0,0,1,61.56,39.07Zm13.3-20.93a1.2,1.2,0,0,1-.64,1.61,47.41,47.41,0,0,1-8.74,2.71A1.23,1.23,0,0,1,64,21.54a1.27,1.27,0,0,1,1-1.43,53,53,0,0,0,8.28-2.58A1.23,1.23,0,0,1,74.86,18.13Zm-2.16,38a1,1,0,0,1,1-1h3.54V42h-12a1.13,1.13,0,0,1,0-2.25H77.62a1.26,1.26,0,0,1,1-.41,1.34,1.34,0,0,1,1.33,1.33V56.82a1.35,1.35,0,0,1-1.33,1.38,1.37,1.37,0,0,1-1.29-1.06H73.71A1,1,0,0,1,72.7,56.13Zm1.7-24v4.69A1.17,1.17,0,0,1,73.25,38h-6.3a1.17,1.17,0,0,1-1.15-1.15V31.89a1.15,1.15,0,1,1,2.3,0v3.77h4V33.22H70.4a1.13,1.13,0,1,1,0-2.25h2.85A1.14,1.14,0,0,1,74.4,32.12ZM73.25,51.21h-6.3a1.13,1.13,0,0,1-1.15-1.1v-5a1.15,1.15,0,0,1,2.3,0V49h4V46.52H70.4a1.13,1.13,0,1,1,0-2.25h2.85a1.13,1.13,0,0,1,1.15,1.1v4.74A1.13,1.13,0,0,1,73.25,51.21ZM82,32.35a1.17,1.17,0,0,1-1.56.69,50.94,50.94,0,0,1-7.91-3.73,1.22,1.22,0,0,1-.41-1.7,1.19,1.19,0,0,1,1.66-.37,53.44,53.44,0,0,0,7.5,3.54A1.21,1.21,0,0,1,82,32.35Z"/><path class="cls-1" d="M85.76,48.35a1.28,1.28,0,0,1,0-1.78,1.25,1.25,0,0,1,1.82,0A3.58,3.58,0,0,0,92,47a80.29,80.29,0,0,1,13.39-6.58A16.49,16.49,0,0,0,102,37.55c-1.63-1.2-3.17-2.3-3.17-4,0-1.39,1.54-2.3,3.84-3.6,1.15-.67,3.26-1.87,3.6-2.5-.1-.77-1.87-1.34-3.46-1.87-2.11-.67-4.51-1.44-5.42-3.41a1,1,0,0,1-.14-.53,1.25,1.25,0,0,1,2.4-.53c.48,1,2.3,1.54,3.94,2.06,2.45.77,5.23,1.68,5.23,4.37,0,1.82-2.35,3.17-4.9,4.61a20.77,20.77,0,0,0-2.5,1.58,7.29,7.29,0,0,0,2.06,1.73,20.1,20.1,0,0,1,4.42,4.08c4.8-1.44,8.93-1.63,11.09.34s2,5-.1,9.41a1.28,1.28,0,0,1-1.68.62,1.24,1.24,0,0,1-.58-1.68c.86-1.87,2.11-5.14.67-6.48-1.15-1-4-1.06-8.21.1a10.92,10.92,0,0,1,.77,4.13c0,5-2.16,6.67-3.46,7.25-2.5,1.1-5.81,0-9.07-3a1.27,1.27,0,0,1,1.73-1.87c2.4,2.21,4.8,3.17,6.34,2.5,1.25-.53,1.92-2.26,1.92-4.9a8.92,8.92,0,0,0-.62-3.36A78,78,0,0,0,93.3,49.12,6,6,0,0,1,85.76,48.35Z"/><path class="cls-1" d="M160.55,45.23c-.62,3.6-2.64,6.1-5.47,6.77a4.58,4.58,0,0,1-4.85-1.58c-1.82-2.5-.29-6.77,1.34-11.33,1.3-3.6,2.79-7.68,1.73-9.41-.1-.19-.43-.77-1.82-1-4.37-.67-10.9,5.18-16.66,11.09-.14,7.1,0,13.58,0,13.68a1.36,1.36,0,0,1-1.3,1.3,1.28,1.28,0,0,1-1.25-1.3c0-.34-.1-5.14,0-11-.58.63-1.1,1.2-1.68,1.78l-3.12,3.31a1.29,1.29,0,0,1-1.82,0,1.28,1.28,0,0,1,0-1.78l3.12-3.31a9.65,9.65,0,0,0,.67-.77,3,3,0,0,0,.1-.34c.1-.24,1.54-3.7,3-6.91,0-.48,0-1,0-1.44-2.69,1-5.62,1.58-7,.1a1.22,1.22,0,0,1,.1-1.73,1.28,1.28,0,0,1,1.78,0v0c.53.38,2.78-.14,5.28-1.15.1-1.54.19-3,.34-4.27a7.81,7.81,0,0,0-.86-4.08,1.26,1.26,0,0,1,.48-1.73,1.28,1.28,0,0,1,1.73.48,10.34,10.34,0,0,1,1.2,5.62c-.1.86-.19,1.82-.24,2.83,0,0,0,0,.1-.1a1.26,1.26,0,0,1,1.49.29,1.18,1.18,0,0,1,.14,1.54A39,39,0,0,0,135,35.1a6.46,6.46,0,0,0,0,1c5.76-5.71,11.9-10.61,16.9-9.84a4.79,4.79,0,0,1,3.65,2.16c1.63,2.74.1,7-1.54,11.57-1.3,3.55-2.74,7.54-1.68,9a2.06,2.06,0,0,0,2.21.58c1.78-.38,3.12-2.16,3.55-4.7a1.24,1.24,0,0,1,1.49-1A1.22,1.22,0,0,1,160.55,45.23Z"/><path class="cls-1" d="M165.87,48.06c-.67-2.21,0-4.85,2-7.44a21.66,21.66,0,0,1,6.63-5.57,44.84,44.84,0,0,1,.86-6.14,11.56,11.56,0,0,1-5.57-1,1.21,1.21,0,0,1-.53-1.68,1.22,1.22,0,0,1,1.68-.58,10.2,10.2,0,0,0,5,.72c.24-.86.48-1.78.82-2.74a9.3,9.3,0,0,0-.1-2.5,1.29,1.29,0,0,1,2.54-.38,10.68,10.68,0,0,1,0,3.7c-.19.58-.34,1.1-.53,1.63a44.54,44.54,0,0,0,7.87-2,1.28,1.28,0,0,1,1.63.72,1.26,1.26,0,0,1-.77,1.63A42.72,42.72,0,0,1,178,28.76a34.87,34.87,0,0,0-.82,5A21.07,21.07,0,0,1,185,32.17c8.21,0,12,4,12.67,7.78,1,4.71-2.21,11.23-11.38,15.12a1.31,1.31,0,0,1-1.68-.72,1.24,1.24,0,0,1,.67-1.63c7.87-3.31,10.66-8.54,9.94-12.24s-4.66-5.76-10.22-5.76a19.29,19.29,0,0,0-8,1.87,38.89,38.89,0,0,0,.29,5.67,1.29,1.29,0,0,1-1.1,1.44,1.32,1.32,0,0,1-1.44-1.1,39.9,39.9,0,0,1-.29-4.56,18.42,18.42,0,0,0-4.56,4.13,7.46,7.46,0,0,0-1.73,4.27,4.22,4.22,0,0,0,.1.77,5.77,5.77,0,0,0,3.07-.29,20.8,20.8,0,0,0,12.58-10.47,1.26,1.26,0,1,1,2.26,1.1c-4.13,8.69-13.73,12.58-17.71,12.29C166.59,49.65,166,48.69,165.87,48.06Z"/><path class="cls-1" d="M203,26.17a1.29,1.29,0,0,1,.43-1.73,1.2,1.2,0,0,1,1.73.43,11.25,11.25,0,0,1,1.54,4.22v.77c0,1.25-.1,2.59-.24,4s-.29,3.22-.29,4.9a14.07,14.07,0,0,0,2.64,9c1.39-3,2.69-5.71,2.74-5.71a1.23,1.23,0,0,1,1.68-.58,1.26,1.26,0,0,1,.58,1.68s-1.87,3.79-3.5,7.44a1.25,1.25,0,0,1-.91.72,1.29,1.29,0,0,1-1.15-.34c-5.42-5.28-4.8-12-4.32-17.33a38,38,0,0,0,.24-4.42A8.47,8.47,0,0,0,203,26.17Zm22.13,3.07a1.25,1.25,0,0,1,1.2-1.34,8.58,8.58,0,0,1,6.63,3,12.66,12.66,0,0,1,2.88,10.42,1.29,1.29,0,0,1-1.44,1.1,1.31,1.31,0,0,1-1.1-1.44,10.11,10.11,0,0,0-2.21-8.35,6.13,6.13,0,0,0-4.66-2.21A1.21,1.21,0,0,1,225.11,29.24Z"/><path class="cls-1" d="M239.48,53.05a1.28,1.28,0,0,1,0-1.75,30.44,30.44,0,0,0,6.76-12.65,1.23,1.23,0,0,1,2.39.55A32,32,0,0,1,241.23,53,1.28,1.28,0,0,1,239.48,53.05Zm35.47-17.21a1.23,1.23,0,0,1-1.2,1.24H243.48a1.22,1.22,0,0,1,0-2.44h30.27A1.22,1.22,0,0,1,274.95,35.85Zm-29-3.91V21.86a1.22,1.22,0,0,1,2.44,0v3.82h4.88V23.19h-2.67a1.08,1.08,0,0,1-1.06-1.1A1,1,0,0,1,250.61,21h2.67V18.09a1.22,1.22,0,0,1,2.44,0V21h5.11V18.09a1.22,1.22,0,0,1,2.44,0V21h5.24a1.26,1.26,0,0,1,.87-.37,1.22,1.22,0,0,1,1.2,1.2V31.94a1.19,1.19,0,0,1-1.2,1.2,1.45,1.45,0,0,1-.87-.32H248a1.35,1.35,0,0,1-.87.32A1.19,1.19,0,0,1,246,31.94Zm2.44-1.33h4.88V27.89H248.4Zm7.82,15.18v6.95c2.25-.41,4-.78,4-.78a1.22,1.22,0,1,1,.51,2.39s-4,.83-7.73,1.38a1.21,1.21,0,0,1-1.38-1,1.15,1.15,0,0,1,1-1.38c.37,0,.78-.14,1.2-.18V45.78h-2.58a1.05,1.05,0,0,1-1.06-1.1,1,1,0,0,1,1.06-1.06h19.09a1.08,1.08,0,1,1,0,2.16Zm-2.35-4.09a1.1,1.1,0,1,1,0-2.21h14.45a1.1,1.1,0,1,1,0,2.21Zm1.84-16h5.11V23.19h-5.11Zm0,4.92h5.11V27.89h-5.11Zm23.37,26.64a1.21,1.21,0,0,1-1.43,1c-.41-.09-10.76-2.16-16.42-9.2a1.15,1.15,0,0,1,.18-1.7,1.23,1.23,0,0,1,1.7.18c5.11,6.35,14.91,8.33,15,8.33A1.2,1.2,0,0,1,279.09,57.24ZM263.26,30.6h4.88V23.19h-4.88v2.48h2.39a1.1,1.1,0,0,1,0,2.21h-2.39Zm5.47,20.1a1.15,1.15,0,0,1,0-1.61L272.65,46a1.21,1.21,0,0,1,1.52,1.89L270.3,51A1.08,1.08,0,0,1,268.74,50.71Z"/><path class="cls-1" d="M282.4,54.8V20.66a1.33,1.33,0,1,1,2.67,0V52.91h28.25V22.37H287.5a1.22,1.22,0,0,1,0-2.44h26a1.3,1.3,0,0,1,1.1-.6A1.33,1.33,0,0,1,316,20.66V54.8a1.35,1.35,0,0,1-2.58.55H284.93a1.27,1.27,0,0,1-1.2.78A1.34,1.34,0,0,1,282.4,54.8Zm8.33-8.56a40.89,40.89,0,0,0,6.3-5.38,1.1,1.1,0,0,1,1.56-.09,1.14,1.14,0,0,1,.09,1.56A50.58,50.58,0,0,1,292,48.08a1.21,1.21,0,0,1-1.56-.28A1.16,1.16,0,0,1,290.72,46.24Zm7.22-16.38v-2h-3.86a1.1,1.1,0,1,1,0-2.21h3.86V24.3a1.08,1.08,0,1,1,2.16,0v1.33H304a1.1,1.1,0,1,1,0,2.21h-3.86v2h5.61a1.1,1.1,0,0,1,0,2.21H292.29a1.11,1.11,0,0,1,0-2.21Zm5.8,10h-9.48a1.08,1.08,0,0,1-1.06-1.1V34.37a1.08,1.08,0,1,1,2.16,0v3.31h7.27v-2h-4.78a1.08,1.08,0,1,1,0-2.16h5.89a1.08,1.08,0,0,1,1.1,1.06v4.19A1.12,1.12,0,0,1,303.74,39.89ZM299,43.25a1.09,1.09,0,0,1,1.1,1.1v6a1.08,1.08,0,1,1-2.16,0v-6A1.08,1.08,0,0,1,299,43.25Zm2.07,2.07A1,1,0,0,1,301,43.8a1.1,1.1,0,0,1,1.56-.09,25.34,25.34,0,0,0,5.38,3.36,1.1,1.1,0,0,1-1,2A27,27,0,0,1,301.07,45.32Zm6.07-5.15a1.15,1.15,0,0,1-.14,1.56l-2.07,1.79a1.15,1.15,0,0,1-1.56-.14,1.09,1.09,0,0,1,.14-1.52l2.07-1.79A1.1,1.1,0,0,1,307.15,40.17Z"/><path class="cls-1" d="M320.16,35.34a1.21,1.21,0,0,1,.37-1.7c.09,0,10.21-6.9,16-14.68a1.2,1.2,0,0,1,1.7-.28,1.24,1.24,0,0,1,.28,1.7c-6,8.14-16.19,15-16.61,15.27A1.24,1.24,0,0,1,320.16,35.34Zm34.09,5.2a1.19,1.19,0,0,1-1.2,1.2H327.29a1.2,1.2,0,1,1,0-2.39h25.76A1.19,1.19,0,0,1,354.25,40.54Zm-16.56,4c-1.33,3.22-3.13,6.81-4.19,8.88,6.63-.32,13.71-.87,13.8-.87a1.24,1.24,0,0,1,1.33,1.15,1.23,1.23,0,0,1-1.15,1.29c-.09,0-10.72.83-18.17,1a1.22,1.22,0,0,1,0-2.44c.46,0,1,0,1.47,0,.74-1.43,3-5.93,4.69-9.94a1.25,1.25,0,0,1,1.61-.64A1.2,1.2,0,0,1,337.69,44.5Zm11.5-11a1.23,1.23,0,0,1-1.24,1.2h-15.6a1.22,1.22,0,1,1,0-2.44h15.6A1.24,1.24,0,0,1,349.19,33.45Zm11.73,4.19a1.24,1.24,0,0,1-1.7.32c-.51-.37-13-9-19.37-18.82a1.21,1.21,0,0,1,.37-1.7,1.2,1.2,0,0,1,1.66.37c6.07,9.43,18.59,18,18.72,18.13A1.24,1.24,0,0,1,360.92,37.64Zm-9.57,18.68c-2.21-4.37-5.2-9-5.2-9a1.21,1.21,0,1,1,2-1.33c.14.18,3.08,4.79,5.34,9.25a1.17,1.17,0,0,1-.55,1.61A1.16,1.16,0,0,1,351.35,56.32Z"/></svg>